<svg width="405" height="150" viewBox="0 0 109 41" fill="none" xmlns="http://www.w3.org/2000/svg">
<path d="M20.286 31H15.2586L6.8502 18.2698V31H1.8228V10.3612H6.8502L15.2586 23.1502V10.3612H20.286V31ZM31.1428 31.2352C29.5356 31.2352 28.0852 30.8922 26.7916 30.2062C25.5176 29.5202 24.5082 28.5402 23.7634 27.2662C23.0382 25.9922 22.6756 24.5026 22.6756 22.7974C22.6756 21.1118 23.048 19.632 23.7928 18.358C24.5376 17.0644 25.5568 16.0746 26.8504 15.3886C28.144 14.7026 29.5944 14.3596 31.2016 14.3596C32.8088 14.3596 34.2592 14.7026 35.5528 15.3886C36.8464 16.0746 37.8656 17.0644 38.6104 18.358C39.3552 19.632 39.7276 21.1118 39.7276 22.7974C39.7276 24.483 39.3454 25.9726 38.581 27.2662C37.8362 28.5402 36.8072 29.5202 35.494 30.2062C34.2004 30.8922 32.75 31.2352 31.1428 31.2352ZM31.1428 26.884C32.1032 26.884 32.9166 26.5312 33.583 25.8256C34.269 25.12 34.612 24.1106 34.612 22.7974C34.612 21.4842 34.2788 20.4748 33.6124 19.7692C32.9656 19.0636 32.162 18.7108 31.2016 18.7108C30.2216 18.7108 29.4082 19.0636 28.7614 19.7692C28.1146 20.4552 27.7912 21.4646 27.7912 22.7974C27.7912 24.1106 28.1048 25.12 28.732 25.8256C29.3788 26.5312 30.1824 26.884 31.1428 26.884Z" fill="#010A2C"/>
<path d="M57.8232 22.768C57.8232 21.0824 58.1368 19.6026 58.764 18.3286C59.4108 17.0546 60.283 16.0746 61.3806 15.3886C62.4782 14.7026 63.7032 14.3596 65.0556 14.3596C66.212 14.3596 67.2214 14.5948 68.0838 15.0652C68.9658 15.5356 69.642 16.153 70.1124 16.9174V14.5948H75.1398V31H70.1124V28.6774C69.6224 29.4418 68.9364 30.0592 68.0544 30.5296C67.192 31 66.1826 31.2352 65.0262 31.2352C63.6934 31.2352 62.4782 30.8922 61.3806 30.2062C60.283 29.5006 59.4108 28.5108 58.764 27.2368C58.1368 25.9432 57.8232 24.4536 57.8232 22.768ZM70.1124 22.7974C70.1124 21.543 69.7596 20.5532 69.054 19.828C68.368 19.1028 67.5252 18.7402 66.5256 18.7402C65.526 18.7402 64.6734 19.1028 63.9678 19.828C63.2818 20.5336 62.9388 21.5136 62.9388 22.768C62.9388 24.0224 63.2818 25.022 63.9678 25.7668C64.6734 26.492 65.526 26.8546 66.5256 26.8546C67.5252 26.8546 68.368 26.492 69.054 25.7668C69.7596 25.0416 70.1124 24.0518 70.1124 22.7974ZM88.2239 31L85.0781 26.443L82.4321 31H76.9931L82.4027 22.621L76.8461 14.5948H82.4909L85.6367 19.1224L88.2827 14.5948H93.7217L88.2239 22.8562L93.8687 31H88.2239Z" fill="#010A2C"/>
<path d="M94.56 20.215V22.3786H96.9186V23.075H94.56V25.3036H97.1971V26H93.715V19.5186H97.1971V20.215H94.56ZM101.803 26L100.262 23.3536H99.2402V26H98.3952V19.5279H100.484C100.974 19.5279 101.385 19.6114 101.719 19.7786C102.06 19.9457 102.314 20.1717 102.481 20.4564C102.648 20.7412 102.732 21.0662 102.732 21.4314C102.732 21.8771 102.602 22.2702 102.342 22.6107C102.088 22.9512 101.704 23.1771 101.19 23.2886L102.815 26H101.803ZM99.2402 22.6757H100.484C100.943 22.6757 101.286 22.5643 101.515 22.3414C101.744 22.1124 101.859 21.809 101.859 21.4314C101.859 21.0476 101.744 20.7505 101.515 20.54C101.292 20.3295 100.949 20.2243 100.484 20.2243H99.2402V22.6757ZM108.291 21.4221C108.291 21.9607 108.105 22.4095 107.734 22.7686C107.369 23.1214 106.809 23.2979 106.053 23.2979H104.809V26H103.964V19.5279H106.053C106.784 19.5279 107.338 19.7043 107.715 20.0571C108.099 20.41 108.291 20.865 108.291 21.4221ZM106.053 22.6014C106.524 22.6014 106.87 22.4993 107.093 22.295C107.316 22.0907 107.428 21.7998 107.428 21.4221C107.428 20.6236 106.97 20.2243 106.053 20.2243H104.809V22.6014H106.053Z" fill="#5B4AFF"/>
<path d="M56.9235 25.25C48.0355 23.49 43.2211 11.6833 41.9249 6C35.7032 18.32 42.6656 25.4333 46.9244 27.45C46.0356 28.33 45.8134 30.0167 45.8134 30.75C53.3683 31.19 56.368 27.2667 56.9235 25.25Z" fill="#5B4AFF"/>
<path d="M54.7017 23.05C53.8128 23.05 51.739 21.2167 50.8131 20.3C52.1463 16.78 56.5533 15.1667 58.5902 14.8C57.257 15.24 55.4423 20.4833 54.7017 23.05Z" fill="#5B4AFF"/>
<path d="M50.8131 31.85C49.9243 37.13 44.8877 38.8167 42.4805 39C44.7025 38.12 45.6283 34.2333 45.8134 32.4C47.2847 32.7143 49.702 32.2167 50.8131 31.85Z" fill="#5B4AFF"/>
</svg>
